<?xml version="1.0" encoding="UTF-8" standalone="no"?>
<!DOCTYPE svg PUBLIC "-//W3C//DTD SVG 1.1//EN" "http://www.w3.org/Graphics/SVG/1.1/DTD/svg11.dtd">
<svg width="100%" height="100%" viewBox="0 0 8192 8192" version="1.1" xmlns="http://www.w3.org/2000/svg" xmlns:xlink="http://www.w3.org/1999/xlink" xml:space="preserve" xmlns:serif="http://www.serif.com/" style="fill-rule:evenodd;clip-rule:evenodd;stroke-linecap:round;stroke-linejoin:round;stroke-miterlimit:1.5;">
    <path id="Background" d="M8192,4096C8192,6356.644 6356.644,8192 4096,8192C1835.356,8192 0,6356.644 0,4096C0,1835.356 1835.356,0 4096,0C6356.644,0 8192,1835.356 8192,4096Z" style="fill:rgb(234,255,0);stroke:rgb(234,255,0);stroke-width:1px;"/>
    <g id="PAUL--Pattern---Asset-UI-Library----favicon" serif:id="PAUL (Pattern &amp; Asset UI Library) - favicon">
        <g id="PAUL" transform="matrix(8.683747,0,0,8.683747,-4587.738502,-4587.726576)">
            <path d="M1067.48,712.129L1070.98,718.191C933.075,797.813 847.405,946.198 847.405,1105.44C847.405,1150.75 870.833,1191.33 910.075,1213.99C929.693,1225.31 951.222,1230.98 972.744,1230.98C994.271,1230.98 1015.79,1225.32 1035.41,1213.99C1173.32,1134.37 1258.99,985.981 1258.99,826.738C1258.99,781.425 1235.56,740.847 1196.32,718.191C1157.08,695.535 1110.22,695.535 1070.98,718.191L1067.48,712.129ZM972.744,1245C948.815,1245 924.887,1238.71 903.075,1226.11C859.45,1200.93 833.405,1155.81 833.405,1105.44C833.405,1024.6 854.769,944.87 895.188,874.862C935.607,804.855 993.975,746.486 1063.98,706.067C1107.61,680.88 1159.7,680.88 1203.32,706.067C1246.95,731.254 1272.99,776.364 1272.99,826.738C1272.99,907.576 1251.63,987.309 1211.21,1057.32C1170.79,1127.32 1112.42,1185.69 1042.41,1226.11C1020.6,1238.7 996.672,1245 972.744,1245Z" style="fill:rgb(41,98,255);fill-rule:nonzero;stroke:rgb(41,98,255);stroke-width:7.2px;stroke-linecap:butt;stroke-miterlimit:2;"/>
            <path d="M1027.26,639.758C1005.73,639.758 984.208,645.422 964.587,656.749L964.586,656.75C826.678,736.371 741.008,884.756 741.008,1044C741.008,1089.31 764.436,1129.89 803.678,1152.55C842.918,1175.2 889.775,1175.2 929.017,1152.55C1066.93,1072.92 1152.6,924.539 1152.6,765.297C1152.6,719.984 1129.17,679.405 1089.93,656.75C1070.31,645.422 1048.78,639.758 1027.26,639.758ZM866.347,1183.56C842.418,1183.56 818.49,1177.26 796.677,1164.67C753.053,1139.48 727.008,1094.37 727.008,1044C727.008,963.161 748.373,883.428 788.792,813.42C829.21,743.413 887.579,685.044 957.586,644.626L961.086,650.688L957.586,644.626C1001.21,619.438 1053.3,619.439 1096.93,644.625C1140.55,669.812 1166.6,714.923 1166.6,765.296C1166.6,846.134 1145.23,925.867 1104.81,995.875C1064.39,1065.88 1006.02,1124.25 936.017,1164.67C914.205,1177.26 890.276,1183.56 866.347,1183.56Z" style="fill:rgb(41,98,255);fill-rule:nonzero;stroke:rgb(41,98,255);stroke-width:7.2px;stroke-linecap:butt;stroke-miterlimit:2;"/>
            <path d="M1197.22,718.714L1195.49,717.714L1084.59,653.683L1091.6,641.564L1098.29,645.429L1204.23,706.593L1197.22,718.714Z" style="fill:rgb(41,98,255);fill-rule:nonzero;stroke:rgb(41,98,255);stroke-width:7.2px;stroke-linecap:butt;stroke-miterlimit:2;"/>
            <path d="M741.008,1300.71L840.405,1358.1L939.802,1300.71L939.802,817.369L840.405,759.983L741.008,817.369L741.008,1300.71ZM840.405,1374.26L727.008,1308.79L727.008,809.286L840.405,743.817L953.802,809.286L953.802,1308.79L840.405,1374.26Z" style="fill:rgb(41,98,255);fill-rule:nonzero;stroke:rgb(41,98,255);stroke-width:7.2px;stroke-linecap:butt;stroke-miterlimit:2;"/>
            <path d="M840.405,882.839L730.508,819.39L737.508,807.266L840.405,866.673L943.302,807.266L950.302,819.39L840.405,882.839Z" style="fill:rgb(41,98,255);fill-rule:nonzero;stroke:rgb(41,98,255);stroke-width:7.2px;stroke-linecap:butt;stroke-miterlimit:2;"/>
            <rect x="833.405" y="874.756" width="14" height="491.424" style="fill:rgb(41,98,255);fill-rule:nonzero;stroke:rgb(41,98,255);stroke-width:7.2px;stroke-linecap:butt;stroke-miterlimit:2;"/>
        </g>
    </g>
</svg>
