<?xml version="1.0" encoding="UTF-8"?>
<svg xmlns="http://www.w3.org/2000/svg" xmlns:xlink="http://www.w3.org/1999/xlink" width="80px" height="80px" viewBox="0 0 80 80" version="1.1">
<g id="surface1">
<rect x="0" y="0" width="80" height="80" style="fill:rgb(91.764706%,100%,0%);fill-opacity:1;stroke:none;"/>
<path style="fill:none;stroke-width:1;stroke-linecap:round;stroke-linejoin:round;stroke:rgb(91.764706%,100%,0%);stroke-opacity:1;stroke-miterlimit:1.5;" d="M 0 0 L 8192 0 L 8192 8192 L 0 8192 Z M 0 0 " transform="matrix(0.00976562,0,0,0.00976562,0,0)"/>
<path style="fill-rule:nonzero;fill:rgb(16.078432%,38.431373%,100%);fill-opacity:1;stroke-width:62.5;stroke-linecap:butt;stroke-linejoin:round;stroke:rgb(16.078432%,38.431373%,100%);stroke-opacity:1;stroke-miterlimit:2;" d="M 4501.6 2365.2 L 4522.8 2402 C 3693.6 2880.4 3178.8 3772.4 3178.8 4730 C 3178.8 5002.4 3319.6 5246.4 3555.2 5382.4 C 3673.2 5450.4 3802.8 5484.8 3932 5484.8 C 4061.6 5484.8 4190.8 5450.4 4308.8 5382.4 C 5138 4904 5653.2 4011.6 5653.2 3054.4 C 5653.2 2782 5512 2538 5276.4 2402 C 5040.4 2265.6 4758.8 2265.6 4522.8 2402 Z M 3932 5568.8 C 3788.4 5568.8 3644.4 5531.2 3513.2 5455.2 C 3251.2 5304 3094.4 5032.8 3094.4 4730 C 3094.4 4244 3222.8 3764.4 3466 3343.6 C 3708.8 2922.8 4059.6 2572 4480.8 2328.8 C 4742.8 2177.6 5056 2177.6 5318.4 2328.8 C 5580.8 2480.4 5737.2 2751.6 5737.2 3054.4 C 5737.2 3540.4 5608.8 4019.6 5365.6 4440.8 C 5122.8 4861.6 4772 5212.4 4350.8 5455.2 C 4220 5531.2 4076 5568.8 3932 5568.8 Z M 3932 5568.8 " transform="matrix(0.00976562,0,0,0.00976562,0,0)"/>
<path style="fill-rule:nonzero;fill:rgb(16.078432%,38.431373%,100%);fill-opacity:1;stroke-width:62.5;stroke-linecap:butt;stroke-linejoin:round;stroke:rgb(16.078432%,38.431373%,100%);stroke-opacity:1;stroke-miterlimit:2;" d="M 4260 1930.4 C 4130.4 1930.4 4001.2 1964.4 3883.2 2032.4 C 3054 2511.2 2538.8 3403.2 2538.8 4360.4 C 2538.8 4632.8 2680 4876.8 2915.6 5013.2 C 3151.6 5149.2 3433.2 5149.2 3669.2 5013.2 C 4498.4 4534.4 5013.6 3642.4 5013.6 2685.2 C 5013.6 2412.8 4872.4 2168.8 4636.8 2032.4 C 4518.8 1964.4 4389.2 1930.4 4260 1930.4 Z M 3292.4 5199.6 C 3148.8 5199.6 3004.8 5161.6 2873.6 5086 C 2611.6 4934.4 2454.8 4663.2 2454.8 4360.4 C 2454.8 3874.4 2583.2 3395.2 2826.4 2974.4 C 3069.2 2553.6 3420 2202.4 3841.2 1959.6 L 3862 1996 L 3841.2 1959.6 C 4103.2 1808 4416.4 1808 4678.8 1959.6 C 4940.8 2110.8 5097.6 2382 5097.6 2685.2 C 5097.6 3170.8 4969.2 3650.4 4726 4071.2 C 4483.2 4492 4132 4842.8 3711.2 5086 C 3580.4 5161.6 3436.4 5199.6 3292.4 5199.6 Z M 3292.4 5199.6 " transform="matrix(0.00976562,0,0,0.00976562,0,0)"/>
<path style="fill-rule:nonzero;fill:rgb(16.078432%,38.431373%,100%);fill-opacity:1;stroke-width:62.5;stroke-linecap:butt;stroke-linejoin:round;stroke:rgb(16.078432%,38.431373%,100%);stroke-opacity:1;stroke-miterlimit:2;" d="M 5281.6 2404.8 L 5271.2 2398.8 L 4604.4 2014 L 4646.8 1941.2 L 4686.8 1964.4 L 5324 2332 Z M 5281.6 2404.8 " transform="matrix(0.00976562,0,0,0.00976562,0,0)"/>
<path style="fill-rule:nonzero;fill:rgb(16.078432%,38.431373%,100%);fill-opacity:1;stroke-width:62.5;stroke-linecap:butt;stroke-linejoin:round;stroke:rgb(16.078432%,38.431373%,100%);stroke-opacity:1;stroke-miterlimit:2;" d="M 2538.8 5904 L 3136.4 6248.8 L 3734 5904 L 3734 2998 L 3136.4 2653.2 L 2538.8 2998 Z M 3136.4 6346 L 2454.8 5952.4 L 2454.8 2949.6 L 3136.4 2556 L 3818.4 2949.6 L 3818.4 5952.4 Z M 3136.4 6346 " transform="matrix(0.00976562,0,0,0.00976562,0,0)"/>
<path style="fill-rule:nonzero;fill:rgb(16.078432%,38.431373%,100%);fill-opacity:1;stroke-width:62.5;stroke-linecap:butt;stroke-linejoin:round;stroke:rgb(16.078432%,38.431373%,100%);stroke-opacity:1;stroke-miterlimit:2;" d="M 3136.4 3391.6 L 2476 3010.4 L 2518 2937.2 L 3136.4 3294.4 L 3755.2 2937.2 L 3797.2 3010.4 Z M 3136.4 3391.6 " transform="matrix(0.00976562,0,0,0.00976562,0,0)"/>
<path style="fill-rule:nonzero;fill:rgb(16.078432%,38.431373%,100%);fill-opacity:1;stroke-width:62.5;stroke-linecap:butt;stroke-linejoin:round;stroke:rgb(16.078432%,38.431373%,100%);stroke-opacity:1;stroke-miterlimit:2;" d="M 3094.4 3343.2 L 3178.8 3343.2 L 3178.8 6297.6 L 3094.4 6297.6 Z M 3094.4 3343.2 " transform="matrix(0.00976562,0,0,0.00976562,0,0)"/>
</g>
</svg>
